<svg id="Слой_1" xmlns="http://www.w3.org/2000/svg" viewBox="0 0 321.7 122.9"><style>.st1{fill:none}.st1,.st2{stroke:#000;stroke-width:.125}</style><g transform="translate(147.15 -181.92)"><radialGradient id="SVGID_1_" cx="-365.757" cy="-160.254" r=".005" gradientTransform="matrix(.8178 -.1301 -.06806 -.428 110.718 253.25)" gradientUnits="userSpaceOnUse"><stop offset="0" stop-color="#1c1c1c"/><stop offset="1" stop-color="#666" stop-opacity="0"/></radialGradient><path class="st2" d="M151.6 183c11.4 0 20.7 11.6 20.7 25.8s-9.3 25.8-20.7 25.8-20.7-11.6-20.7-25.8 9.3-25.8 20.7-25.8zm-284.6 2.1c7.5.1 14.8 9 17 21.2 2.4 13.5-2.3 26-10.5 27.9s-16.8-7.5-19.2-20.9 2.3-26 10.5-27.9c.5-.1 1-.2 1.5-.2.2 0 .5-.1.7-.1z"/><linearGradient id="SVGID_2_" gradientUnits="userSpaceOnUse" x1="-60.184" y1="-2.659" x2="-60.184" y2="-2.659" gradientTransform="matrix(1 0 0 -1 147.15 219.321)"><stop offset="0" stop-color="#737373"/><stop offset="1" stop-color="#2f2f2f"/></linearGradient><linearGradient id="SVGID_3_" gradientUnits="userSpaceOnUse" x1="-66.784" y1="25.721" x2="-66.784" y2="25.721" gradientTransform="matrix(1 0 0 -1 147.15 219.321)"><stop offset="0" stop-color="#737373"/><stop offset="1" stop-color="#2f2f2f"/></linearGradient><radialGradient id="SVGID_4_" cx="99.7" cy="-1208.903" r="0" gradientTransform="matrix(1.0903 -.1153 -.01304 -.1233 -14.628 36.875)" gradientUnits="userSpaceOnUse"><stop offset="0" stop-color="#e4e4e4"/><stop offset="1" stop-color="#e4e4e4" stop-opacity="0"/></radialGradient><radialGradient id="SVGID_5_" cx="81.311" cy="-1187.407" r="0" gradientTransform="matrix(1.0903 -.1153 -.01304 -.1233 -14.628 36.875)" gradientUnits="userSpaceOnUse"><stop offset="0" stop-color="#e4e4e4"/><stop offset="1" stop-color="#e4e4e4" stop-opacity="0"/></radialGradient><linearGradient id="SVGID_6_" gradientUnits="userSpaceOnUse" x1="64.702" y1="23.213" x2="64.702" y2="23.213" gradientTransform="matrix(1 0 0 -1 8.51 249.826)"><stop offset="0" stop-color="#737373"/><stop offset="1" stop-color="#2f2f2f"/></linearGradient><linearGradient id="SVGID_7_" gradientUnits="userSpaceOnUse" x1="68.234" y1="20.432" x2="68.234" y2="20.432" gradientTransform="matrix(1 0 0 -1 8.51 249.826)"><stop offset="0" stop-color="#737373"/><stop offset="1" stop-color="#2f2f2f"/></linearGradient><radialGradient id="SVGID_8_" cx="194.066" cy="-405.799" r="0" gradientTransform="matrix(1.6144 .07415 .01437 -.3128 -200.257 42.252)" gradientUnits="userSpaceOnUse"><stop offset="0" stop-color="#e0e0e0"/><stop offset="1" stop-color="#e0e0e0" stop-opacity="0"/></radialGradient><path class="st1" d="M152.2 181.9c21.7 5.7 34.5 40.9 5 54.6"/><g transform="translate(-138.64 30.505)"><linearGradient id="SVGID_9_" gradientUnits="userSpaceOnUse" x1="-7.128" y1="10.134" x2="12.818" y2="11.014" gradientTransform="matrix(1 0 0 -1 8.51 188.816)"><stop offset="0" stop-color="#b4b4b4"/><stop offset="1" stop-color="#b4b4b4" stop-opacity="0"/></linearGradient><path d="M4.9 154.7c-.5 0-1 .1-1.5.2-8.2 1.9-12.9 14.4-10.5 27.9 1.6 9.1 6.1 16.4 11.4 19.5 4.8.3 8.7-.6 13.4-3.8-5.6 1.3-9.3 3.7-14.3.1-2.9-5-9-8.7-6.1-16.1 8.8-2.9 15.6-.5 23.8 2.8.7.1-.3-2.2-.3-2.2-1.1-3.7-.2-8.4-8.4-8.3l-.5 2.1c-5.1 2.5-10.3.4-15.4.3 4.6-3.5 3.5-6.8-.4-10-.2-5.2 1.7-4.3 3.5-3.8l1.1 1.1c3.6-1.1 6 0 8.8.6-6.8-2.7-6-4.8-6.7-6.9 2.1-.3 4.7.4 7.5 1.5L8.1 157c4 1.5 6.9 4.3 10.1 6.8-3.5-5.9-8.4-9.4-13.3-9.1z" opacity=".5" fill="url(#SVGID_9_)"/><path d="M22.6 175.8c2.5 13.5-2.2 26-10.3 28-8.2 2-16.8-7.3-19.3-20.7 0-.1 0-.2-.1-.4-2.5-13.5 2.2-26 10.3-28 8.2-2 16.8 7.3 19.3 20.7 0 .2.1.3.1.4z" opacity=".5" fill="#d1d1d1" stroke="#000" stroke-width=".125" stroke-linecap="round" stroke-linejoin="round"/></g><linearGradient id="SVGID_10_" gradientUnits="userSpaceOnUse" x1="-87.393" y1="15.805" x2="-87.393" y2="15.805" gradientTransform="matrix(1 0 0 -1 8.51 249.826)"><stop offset="0" stop-color="#737373"/><stop offset="1" stop-color="#2f2f2f"/></linearGradient><linearGradient id="SVGID_11_" gradientUnits="userSpaceOnUse" x1="-96.789" y1="41.286" x2="-93.481" y2="44.512" gradientTransform="matrix(1 0 0 -1 8.51 249.826)"><stop offset="0" stop-color="#ccc"/><stop offset="1" stop-color="#ccc" stop-opacity="0"/></linearGradient><path d="M-84.4 207.6c-1.6.3-4.3.3-6.4.5h.5" fill="url(#SVGID_11_)"/><linearGradient id="SVGID_12_" gradientUnits="userSpaceOnUse" x1="-90.112" y1="43.398" x2="-90.112" y2="43.398" gradientTransform="matrix(1 0 0 -1 8.51 249.826)"><stop offset="0" stop-color="#ccc"/><stop offset="1" stop-color="#ccc" stop-opacity="0"/></linearGradient><path d="M69.8 209.2c0 9-5 16.3-11.4 16.4-6.3.1-11.5-7.2-11.5-16.1v-.2c0-9 5-16.3 11.4-16.4 6.3-.1 11.5 7.2 11.5 16.1v.2z" fill="#ececec"/><linearGradient id="SVGID_13_" gradientUnits="userSpaceOnUse" x1="53.457" y1="40.93" x2="69.007" y2="40.93" gradientTransform="matrix(1 0 0 -1 8.51 249.826)"><stop offset="0" stop-color="#ccc"/><stop offset="1" stop-color="#ccc" stop-opacity="0"/></linearGradient><path d="M63.7 190.4c-2.3 0-5.7 1.4-8.3 2.9v.2c.9-.3 1.9-.5 2.8-.5 6.3 0 11.5 7.3 11.5 16.3s-5.1 16.2-11.5 16.2h-.6l-6.2-3c4 4.6 12.1 6 17.8 4.4 10.3-5.6 12.1-33.4-5.5-36.5z" fill="url(#SVGID_13_)"/><linearGradient id="SVGID_14_" gradientUnits="userSpaceOnUse" x1="38.482" y1="42.645" x2="39.059" y2="45.906" gradientTransform="matrix(1 0 0 -1 8.51 249.826)"><stop offset="0" stop-color="#737373"/><stop offset="1" stop-color="#2f2f2f"/></linearGradient><path d="M47 207.9c.1-1.1.2-2.2.4-3.3" fill="url(#SVGID_14_)"/><radialGradient id="SVGID_15_" cx="814.249" cy="1930.719" r=".001" gradientTransform="matrix(-2.0161 .1773 .0099 .1126 1807.9 -156.315)" gradientUnits="userSpaceOnUse"><stop offset="0" stop-color="#ccc"/><stop offset="1" stop-color="#ccc" stop-opacity="0"/></radialGradient><radialGradient id="SVGID_16_" cx="-24.289" cy="-1208.406" r="0" gradientTransform="matrix(.7379 -.06118 -.01012 -.1221 93.157 9.085)" gradientUnits="userSpaceOnUse"><stop offset="0" stop-color="#e6e6e6" stop-opacity=".806"/><stop offset="1" stop-color="#e6e6e6" stop-opacity=".366"/></radialGradient><radialGradient id="SVGID_17_" cx="166.054" cy="-580.422" r="4.433" gradientTransform="matrix(2.3964 .09235 .00902 -.234 -303.922 16.719)" gradientUnits="userSpaceOnUse"><stop offset="0" stop-color="#e4e4e4"/><stop offset="1" stop-color="#e4e4e4" stop-opacity="0"/></radialGradient><path d="M94.1 168.5c-2 2.6-4.5 2.7-6.7 3.6" opacity=".913" fill="url(#SVGID_17_)"/><linearGradient id="SVGID_18_" gradientUnits="userSpaceOnUse" x1="101.046" y1="13.398" x2="101.046" y2="13.398" gradientTransform="matrix(1 0 0 -1 8.51 249.826)"><stop offset="0" stop-color="#b3b3b3"/><stop offset="1" stop-color="#b3b3b3" stop-opacity="0"/></linearGradient><radialGradient id="SVGID_19_" cx="63.516" cy="123.14" r="0" gradientTransform="matrix(.7089 -.6171 -.636 -.7306 211.428 423.555)" gradientUnits="userSpaceOnUse"><stop offset="0" stop-color="#ccc"/><stop offset="1" stop-color="#ccc" stop-opacity=".525"/></radialGradient><radialGradient id="SVGID_20_" cx="81.514" cy="173.685" r="18.533" gradientTransform="matrix(.7089 -.6171 -.636 -.7306 211.428 423.555)" gradientUnits="userSpaceOnUse"><stop offset="0" stop-color="#ccc"/><stop offset="1" stop-color="#ccc" stop-opacity=".525"/></radialGradient><path d="M179.9 242.1l-44.4 1.3" opacity=".409" fill="url(#SVGID_20_)"/><linearGradient id="SVGID_21_" gradientUnits="userSpaceOnUse" x1="-119.731" y1="42.029" x2="-105.31" y2="42.029" gradientTransform="matrix(.998 -.06439 -.06056 -.9388 23.081 240.294)"><stop offset="0" stop-color="#ccc"/><stop offset="1" stop-color="#ccc" stop-opacity="0"/></linearGradient><path d="M-97.8 192c-1.9 0-10.5 2.7-10.6 3.8.4-.1 3.2-1.2 3.5-1.3.7-.1 1.5 0 2.2.1.4.1.7.2 1.1.3.3.1.7.3 1 .4.7.3 1.3.7 1.9 1.2.3.2.6.5.9.8.6.6 1.2 1.2 1.7 1.9 1.8 2.5 3 5.7 3.4 9.4.9 8.3-3.2 15.6-9.1 16.2-.4 0-2.6-.2-2.9-.2 2.6 1 9.4.5 12.6 0 10.6-6.6 12-26.6-4.3-32.7-.1-.1-1.1.1-1.4.1z" fill="url(#SVGID_21_)"/><radialGradient id="SVGID_22_" cx="-132.983" cy="111.404" r="10.799" gradientTransform="matrix(.987 -.09786 -.1442 -1.3999 43.988 352.556)" gradientUnits="userSpaceOnUse"><stop offset="0" stop-color="#999"/><stop offset="1" stop-color="#999" stop-opacity="0"/></radialGradient><path d="M-92.7 208.6c.9 8.3-3.1 15.7-9 16.3-5.9.7-11.4-5.6-12.3-13.9v-.3c-.9-8.3 3.1-15.7 9-16.3 5.9-.7 11.4 5.6 12.3 13.9v.3z" fill="#f2f2f2" stroke="url(#SVGID_22_)" stroke-width=".125" stroke-linecap="round" stroke-linejoin="round" stroke-miterlimit="4.2"/><radialGradient id="SVGID_23_" cx="114.019" cy="-3641.746" r="0" gradientTransform="matrix(1.3316 0 0 -.0514 -52.34 69.494)" gradientUnits="userSpaceOnUse"><stop offset="0" stop-color="#999"/><stop offset="1" stop-color="#999" stop-opacity="0"/></radialGradient><radialGradient id="SVGID_24_" cx="134.435" cy="93.428" r="9.433" gradientTransform="matrix(1.1857 -.5784 -.5416 -1.2653 36.295 488.972)" gradientUnits="userSpaceOnUse"><stop offset="0"/><stop offset="1" stop-color="#b9b9b9"/></radialGradient><path d="M152.1 287.3c4.3 5.7 4.7 12.9.8 16-3.9 3.2-10.5 1.1-14.8-4.6-4.3-5.7-4.7-12.9-.8-16 3.8-3.2 10.5-1.1 14.8 4.6z" fill="url(#SVGID_24_)"/><radialGradient id="SVGID_25_" cx="168.183" cy="-50.716" r="9.615" gradientTransform="matrix(.8814 .205 .2972 -1.072 3.82 202.617)" gradientUnits="userSpaceOnUse"><stop offset="0" stop-color="#969696" stop-opacity=".645"/><stop offset="1" stop-color="#6d6d6d" stop-opacity=".532"/></radialGradient><path d="M151.1 288.8c3.5 4.6 3.8 10.4.7 12.9-3.1 2.5-8.5.9-12-3.7-3.5-4.6-3.8-10.4-.7-12.9 3.2-2.6 8.5-.9 12 3.7z" fill="url(#SVGID_25_)"/><radialGradient id="SVGID_26_" cx="226.634" cy="60.938" r="5.685" gradientTransform="matrix(1.8958 -.1677 -.1698 -1.919 -271.054 448.435)" gradientUnits="userSpaceOnUse"><stop offset="0" stop-color="#ff7f2a"/><stop offset="1" stop-color="#ffd65c"/></radialGradient><path d="M145.8 284.5c-.4.2-.8.4-1.1.7-3.1 2.5-2.8 8.4.7 13 1.5 2 3.4 3.5 5.3 4.3.4-.2.7-.4 1.1-.7 3.1-2.5 2.8-8.3-.7-12.9-1.5-2.1-3.4-3.6-5.3-4.4z" fill="url(#SVGID_26_)"/><linearGradient id="SVGID_27_" gradientUnits="userSpaceOnUse" x1="131.483" y1="-46.537" x2="149.293" y2="-36.607" gradientTransform="matrix(1 0 0 -1 8.51 249.826)"><stop offset="0"/><stop offset="1" stop-color="#b9b9b9"/></linearGradient><path d="M143.6 280.6c-2.8.2-3.4.6-4.3.9 3.9-1.3 9.1.9 12.8 5.7 4.3 5.7 4.7 12.9.8 16.1-.6.5-1.3.8-2 1.1 1.4.5 5.7-1.9 7.6-3.8.6-10.6-5.1-20.2-14.9-20z" fill="url(#SVGID_27_)"/><radialGradient id="SVGID_28_" cx="-139.17" cy="47.905" r="4.427" gradientTransform="matrix(1 0 0 -1.7639 8.51 371.945)" gradientUnits="userSpaceOnUse"><stop offset="0" stop-color="#ff7f2a"/><stop offset="1" stop-color="#ffd65c"/></radialGradient><radialGradient id="SVGID_29_" cx="-97.55" cy="-975.534" r="10.136" gradientTransform="matrix(1 0 0 -.1657 8.51 79.54)" gradientUnits="userSpaceOnUse"><stop offset="0" stop-color="#f7f7f7" stop-opacity=".728"/><stop offset="1" stop-color="#c4c4c4" stop-opacity=".208"/></radialGradient><path d="M-103 241.5l28-.6" fill="url(#SVGID_29_)"/><radialGradient id="SVGID_30_" cx="-86.23" cy="-420.329" r="6.436" gradientTransform="matrix(1 0 0 -.3253 147.15 104.005)" gradientUnits="userSpaceOnUse"><stop offset="0" stop-color="#f7f7f7"/><stop offset="1" stop-color="#c4c4c4" stop-opacity="0"/></radialGradient><radialGradient id="SVGID_31_" cx="-30.047" cy="-425.049" r="5.245" gradientTransform="matrix(1.3987 0 0 -.3228 102.947 103.562)" gradientUnits="userSpaceOnUse"><stop offset="0" stop-color="#f7f7f7"/><stop offset="1" stop-color="#c4c4c4" stop-opacity="0"/></radialGradient><path d="M51.9 240.9l18-.3" fill="url(#SVGID_30_)" stroke="url(#SVGID_31_)" stroke-width=".125"/></g><path d="M23 101.2c5.2 6.3 6.4 13.2 2.9 15.5-3.6 2.2-10.6-1.1-15.8-7.4l-.1-.1C4.8 102.9 3.5 96 7.1 93.7c3.6-2.2 10.6 1.1 15.8 7.4 0 .1 0 .1.1.1z" fill="#bbb" stroke="#000" stroke-width=".125" stroke-linecap="round" stroke-linejoin="round"/><path d="M17.9 103.5c3.1 4.6 3.9 8.9 1.7 9.7s-6.4-2.3-9.5-6.9c0 0 0-.1-.1-.1-3.1-4.6-3.9-8.9-1.7-9.7 2.2-.8 6.4 2.3 9.6 7z" fill="#4d4d4d" stroke="#000" stroke-width=".125" stroke-linecap="round" stroke-linejoin="round"/><radialGradient id="SVGID_36_" cx="7.943" cy="-134.015" r="4.427" gradientTransform="matrix(1 0 0 -1.7639 8.51 -130.864)" gradientUnits="userSpaceOnUse"><stop offset="0" stop-color="#ff7f2a"/><stop offset="1" stop-color="#ffd65c"/></radialGradient><path d="M12.4 97.8c-.4 1.7-.5 4.1 0 6.8.4 2.6 1.3 4.9 2.2 6.7 1.9 1.5 3.7 2.3 4.9 1.9 2.2-.7 1.4-5.1-1.7-9.7-1.6-2.4-3.6-4.5-5.4-5.7z" fill="url(#SVGID_36_)" stroke="#000" stroke-width=".085" stroke-linecap="round" stroke-linejoin="round"/><linearGradient id="SVGID_37_" gradientUnits="userSpaceOnUse" x1="266.221" y1="-135.303" x2="266.731" y2="-134.853" gradientTransform="matrix(.8583 0 0 -.971 81.134 -114.9)"><stop offset="0" stop-color="#e6e6e6" stop-opacity=".887"/><stop offset="1" stop-color="#e6e6e6" stop-opacity="0"/></linearGradient><path d="M319 27.8c.1 14.3-9.1 25.9-20.6 26-11.4.1-20.8-11.4-20.8-25.7v-.3c-.1-14.3 9.1-25.9 20.6-26 11.4-.1 20.8 11.4 20.8 25.7v.3z" opacity=".5" fill="url(#SVGID_37_)" stroke="#000" stroke-width=".125" stroke-linecap="round" stroke-linejoin="round"/><radialGradient id="SVGID_38_" cx="122.603" cy="-348.892" r="0" gradientTransform="matrix(.8178 -.1301 -.06806 -.428 125.143 12.605)" gradientUnits="userSpaceOnUse"><stop offset="0" stop-color="#1c1c1c"/><stop offset="1" stop-color="#666" stop-opacity="0"/></radialGradient><radialGradient id="SVGID_39_" cx="839.455" cy="-417.709" r="0" gradientTransform="matrix(.8178 -.1301 -.06806 -.428 125.143 12.605)" gradientUnits="userSpaceOnUse"><stop offset="0" stop-color="#1c1c1c"/><stop offset="1" stop-color="#666" stop-opacity="0"/></radialGradient><radialGradient id="SVGID_40_" cx="122.591" cy="-348.888" r="0" gradientTransform="matrix(.8178 -.1301 -.06806 -.428 125.143 12.605)" gradientUnits="userSpaceOnUse"><stop offset="0" stop-color="#1c1c1c"/><stop offset="1" stop-color="#666" stop-opacity="0"/></radialGradient><path class="st2" d="M298.3 1.6c11.4 0 20.7 11.6 20.7 25.8s-9.3 25.8-20.7 25.8-20.7-11.6-20.7-25.8 9.2-25.8 20.7-25.8z"/><radialGradient id="SVGID_41_" cx="381.811" cy="-572.9" r="0" gradientTransform="matrix(1.6144 .07415 .01437 -.3128 -288.052 -207.486)" gradientUnits="userSpaceOnUse"><stop offset="0" stop-color="#e0e0e0"/><stop offset="1" stop-color="#e0e0e0" stop-opacity="0"/></radialGradient><path class="st1" d="M298.8.5c21.7 5.7 34.5 40.9 5 54.6"/><radialGradient id="SVGID_42_" cx="257.312" cy="3.026" r="8.415" gradientTransform="matrix(.7089 -.6171 -.636 -.7306 138.568 199.536)" gradientUnits="userSpaceOnUse"><stop offset="0" stop-color="#ccc"/><stop offset="1" stop-color="#ccc" stop-opacity=".525"/></radialGradient><path d="M321.5 27.2c.9 9.6-1.9 15.1-5.6 19.6" opacity=".409" fill="url(#SVGID_42_)"/><g transform="translate(-138.64 30.505)"><linearGradient id="SVGID_43_" gradientUnits="userSpaceOnUse" x1="407.647" y1="-175.276" x2="449.147" y2="-175.276" gradientTransform="matrix(1 0 0 -1 8.51 -175.024)"><stop offset="0" stop-color="#e6e6e6" stop-opacity=".887"/><stop offset="1" stop-color="#e6e6e6" stop-opacity="0"/></linearGradient><path d="M423.1-22.3c-4.2 4.7-6.9 11.6-6.9 19.2 0 14.3 9.3 25.8 20.7 25.8h.1l9.7-5.3-6.4-.3s3.4-6.7 4.7-6.7-11.5.6-11.5.6l-5.2.8-.8-2.3 6.3-6.2 1.4-2.5 10.4-.2 1.7 1.2 7.5.2.9-8.2h-3.6l-4.8.8-3.6-.3-2.5-2.5-2.9 3.1-8.4.2S419.8-7.8 419-8.2l2.2-3.6 18.1-.9-9.2-2.2 10.4-2.2-17.4-5.2z" opacity=".5" fill="url(#SVGID_43_)"/><linearGradient id="SVGID_44_" gradientUnits="userSpaceOnUse" x1="404.865" y1="-165.419" x2="405.375" y2="-164.969" gradientTransform="matrix(.8583 0 0 -.971 100.781 -175.024)"><stop offset="0" stop-color="#e6e6e6" stop-opacity=".887"/><stop offset="1" stop-color="#e6e6e6" stop-opacity="0"/></linearGradient><path d="M457.6-3.1c.1 14.3-9.1 25.9-20.6 26-11.4.1-20.8-11.4-20.8-25.7v-.3c-.1-14.3 9.1-25.9 20.6-26 11.4-.1 20.8 11.4 20.8 25.7v.3z" opacity=".5" fill="url(#SVGID_44_)" stroke="#000" stroke-width=".125" stroke-linecap="round" stroke-linejoin="round"/><radialGradient id="SVGID_45_" cx="621.922" cy="-240.662" r="13.125" gradientTransform="matrix(.7516 .6597 .6789 -.7735 145.593 -609.18)" gradientUnits="userSpaceOnUse"><stop offset="0" stop-color="#888" stop-opacity=".702"/><stop offset="1" stop-color="#040404" stop-opacity=".621"/></radialGradient><path d="M436.9-28.9c-1.7 0-3.2.2-4.8.7l-.8.5c25.7.1 27.2 25.3 20.4 42.7 3.6-4.7 5.9-11 5.9-18 0-14.3-9.3-25.9-20.7-25.9z" opacity=".5" fill="url(#SVGID_45_)"/><linearGradient id="SVGID_46_" gradientUnits="userSpaceOnUse" x1="407.711" y1="-175.273" x2="447.211" y2="-175.273" gradientTransform="matrix(1 0 0 -1 8.51 -175.024)"><stop offset="0" stop-color="#ccc"/><stop offset="1" stop-color="#ccc" stop-opacity="0"/></linearGradient><path d="M423.1-22.3c-.3.4-.5.6-.8.9-.5.6-.9 1.2-1.4 1.9v.1c-.4.6-.8 1.3-1.2 1.9 0 .1-.1.2-.1.3-.1.3-.3.5-.4.8-.1.1-.1.2-.2.3-.1.3-.2.5-.3.8-.1.3-.3.6-.4 1l-.1.3c0 .1-.1.2-.1.3-.1.2-.1.4-.2.7-.1.2-.1.5-.2.7l-.3.9c0 .2-.1.3-.1.5-.1.2-.1.5-.2.7 0 .1-.1.2-.1.3 0 .1-.1.3-.1.4-.1.4-.2.7-.2 1.1v.2l-.3 2.4c0 .4-.1.8-.1 1.2v3c0 .4 0 .8.1 1.3.1.9.2 1.7.3 2.6.6 3.4 1.6 6.5 3.1 9.2.4.7.8 1.4 1.2 2 1.1 1.6 2.3 3 3.6 4.3.5.5 1.1 1 1.7 1.4 2.3 1.7 4.8 2.9 7.6 3.4l2.1.3h1.2l9.7-5.3-6.4-.3s3.4-6.7 4.7-6.7-11.5.6-11.5.6l-5.2.8-.8-2.3 6.3-6.2 1.4-2.5 10.4-.2 1.7 1.2 7.5.2.9-8.2h-3.6l-4.8.8-3.6-.3-2.5-2.5-2.9 3.1-8.4.2S420-7.6 419.2-8l2.2-3.6 18.1-.9-9.2-2.2 10.4-2.2-17.6-5.4z" fill="url(#SVGID_46_)"/></g></svg>