<svg id="Слой_1" xmlns="http://www.w3.org/2000/svg" viewBox="0 0 141.9 156.7"><style>.st6,.st8{fill:none;stroke-width:.1304;stroke-linecap:round;stroke-linejoin:round;stroke:#010101}.st8{fill:#010101}</style><radialGradient id="SVGID_1_" cx="-548.292" cy="-118.983" r="0" gradientTransform="matrix(.8178 -.1301 -.06806 -.428 65.48 30.883)" gradientUnits="userSpaceOnUse"><stop offset="0" stop-color="#1c1c1c"/><stop offset="1" stop-color="#676767" stop-opacity="0"/></radialGradient><radialGradient id="SVGID_2_" cx="623.591" cy="-323.654" r="0" gradientTransform="matrix(.8178 -.1301 -.06806 -.428 65.48 30.883)" gradientUnits="userSpaceOnUse"><stop offset="0" stop-color="#1c1c1c"/><stop offset="1" stop-color="#676767" stop-opacity="0"/></radialGradient><radialGradient id="SVGID_3_" cx="-56.303" cy="-292.226" r="0" gradientTransform="matrix(.8178 -.1301 -.06806 -.428 65.48 30.883)" gradientUnits="userSpaceOnUse"><stop offset="0" stop-color="#1c1c1c"/><stop offset="1" stop-color="#676767" stop-opacity="0"/></radialGradient><radialGradient id="SVGID_4_" cx="-548.304" cy="-118.979" r="0" gradientTransform="matrix(.8178 -.1301 -.06806 -.428 65.48 30.883)" gradientUnits="userSpaceOnUse"><stop offset="0" stop-color="#1c1c1c"/><stop offset="1" stop-color="#676767" stop-opacity="0"/></radialGradient><radialGradient id="SVGID_5_" cx="-.334" cy="-1442.498" r="5.81" gradientTransform="matrix(1 0 0 -.08538 8.51 -4.462)" gradientUnits="userSpaceOnUse"><stop offset="0" stop-color="#ececec"/><stop offset="1" stop-color="#ececec" stop-opacity="0"/></radialGradient><path d="M8.7 119.4L7.6 118" fill="url(#SVGID_5_)"/><radialGradient id="SVGID_6_" cx="-4.302" cy="-629.285" r="3.779" gradientTransform="matrix(1 0 0 -.1967 8.51 -15.365)" gradientUnits="userSpaceOnUse"><stop offset="0" stop-color="#cdcccc"/><stop offset="1" stop-color="#cdcccc" stop-opacity="0"/></radialGradient><path d="M4 107.4l.5 2.1" fill="url(#SVGID_6_)"/><g transform="translate(-138.64 30.505)"><path class="st6" d="M231.3-10.9c20.8 0 37.7 26.7 37.7 59.5S252.1 108 231.3 108s-37.7-26.6-37.7-59.5 16.9-59.4 37.7-59.4z"/><path d="M228.9-7.3c19.5 0 35.4 25 35.4 55.8s-15.8 55.8-35.4 55.8-35.4-25-35.4-55.8 15.9-55.8 35.4-55.8z" fill="#b4b4b4" stroke="#010101" stroke-width=".122" stroke-linecap="round" stroke-linejoin="round"/><path class="st8" d="M231.8-30.6c-26.9 0-48.8 35.1-48.8 78.3s21.9 78.4 48.8 78.4 48.8-35.1 48.8-78.4-21.9-78.3-48.8-78.3zm-.5 19.7c20.8 0 37.7 26.7 37.7 59.5S252.1 108 231.3 108s-37.7-26.6-37.7-59.5 16.9-59.4 37.7-59.4z"/><path d="M231.3-10.9c20.8 0 37.7 26.7 37.7 59.5S252.1 108 231.3 108s-37.7-26.6-37.7-59.5 16.9-59.4 37.7-59.4z" fill="#ececec" stroke="#010101" stroke-width=".13" stroke-linecap="round" stroke-linejoin="round"/><path d="M260.5 48.6c.1 29.9-14.8 54.2-33.2 54.4-18.4.1-33.5-24-33.5-53.9v-.5c-.2-29.9 14.7-54.3 33.2-54.4 18.4-.1 33.5 24 33.5 53.9v.5z" fill="#b4b4b4"/><path class="st6" d="M231.2-30.6l-47.5.2c-25.2 3-45.1 36.9-45.1 78.1 0 43.3 21.9 76 48.8 76l43.9 2.5c-.1 0-.1-.1-.2-.1-26.6-.6-48.1-35.4-48.1-78.3 0-43 21.6-77.9 48.2-78.4z"/><path d="M255.2 48.6c.1 25.4-12.6 46-28.2 46.2-15.6.1-28.4-20.4-28.5-45.7v-.4c-.1-25.4 12.6-46 28.2-46.2 15.6-.1 28.4 20.4 28.5 45.7v.4z" fill="#676767"/><path class="st8" d="M231.2-30.6l-47.5.2c-25.2 3-45.1 36.9-45.1 78.1 0 43.3 21.9 76 48.8 76l43.9 2.5c-.1 0-.1-.1-.2-.1-26.6-.6-48.1-35.4-48.1-78.3 0-43 21.6-77.9 48.2-78.4z"/><radialGradient id="SVGID_7_" cx="296.675" cy="-63.541" r="31.156" gradientTransform="matrix(1.8296 -.3568 -.2824 -1.4486 -335.936 55.739)" gradientUnits="userSpaceOnUse"><stop offset="0" stop-color="#ececec"/><stop offset="1" stop-color="#ececec" stop-opacity="0"/></radialGradient><path d="M224.8-1.9c-16.1 0-29.3 19.9-30.9 45.3-.1.8-.1 1.7-.1 2.6v5.2c0 .9.1 1.7.1 2.6 1.6 25.4 14.8 45.3 30.9 45.3 17.2 0 31.1-22.6 31.1-50.4S242-1.9 224.8-1.9zm3.1 6.7c1.3.1 2.5.4 3.8.9l-2.9 14.6L224 5.4c1.3-.5 2.6-.5 3.9-.6zm-6.3 1.4L226 22c1.3 4.4-3.9 5.4-4.9 2.5l-3.7-15.4c1.5-1.9 2.3-2.3 4.2-2.9zm13 .7c1.5 0 2.6 1.4 3.4 2.7l-1 13.2c-.1 4.6-4.9 3.9-5 .8l1.6-16.5c.3-.1.6-.2 1-.2zm-19.5 3.8l3.7 15.3-9.4-8.8c1.5-2.3 3.2-4.6 5.7-6.5zm25.3.4c2.2 1.1 3.9 3.6 5.6 6.3l-6.7 8.2 1.1-14.5zm-32.9 8.2l9.4 8.9c4 3.7-.2 10.1-4.6 6.1l-8.4-7.7c.7-2.9 1.9-5 3.6-7.3zm39.6 1.5c2.1.8 2.6 3.9 2.2 5.7l-5.6 9.1c-3.3 3.2-4.7-5.5-2.6-7.7l6-7.1zm-43.9 7.9l9.4 10.6-11.8.8c-.3-1.2 1.9-11.8 2.4-11.4zm47.9 1.1c1.7 3.4 1.4 6.5 1.2 10.3l-8.3-.5 7.1-9.8zm-28.3 1c3.6 4.4-1.1 8.7-2.8 7.8.5-2.5.9-5.1 2.8-7.8zm11.7.3c.8 0 1.6.2 2.3.8 2.6 2.2-3.2 10.4-6.5 5.4-.7-3.7 1.8-6.1 4.2-6.2zm-8.1 6.3c2.9 0 5.2 4.4 5.2 9.8s-2.3 9.8-5.2 9.8-5.2-4.4-5.2-9.8 2.3-9.8 5.2-9.8zm19 5.4h.3l6.8.1c.6 1 .7 6.4.5 8.1l-6.9.4c-4.4.1-3.2-8.4-.7-8.6zm-33.5.5c3.4.1 3.5 9-.3 8.9l-11.3-.2.1-8.3 11.5-.4zm24.9 5.4c2.2-.1 4.4 1.8 3.3 5.1-1.8 5.2-7.9 1.6-6.5-2.7.6-1.6 1.9-2.4 3.2-2.4zm-19.5.2c3.8.5 3.8 5.4-.1 6.4-.1-2.4-.4-4.1.1-6.4zm35.7 5.5c-.7 3.5-1.4 6.9-2.8 10l-6.1-9.3 8.9-.7zm-52.2.5l11.4.7s-9.3 9.8-9.9 10.8c-.6 1-2.4-11.3-1.5-11.5zm42.3 3.6c.2 0 .4 0 .6.1l5.5 9c-.2 1.9-1.6 4.4-2.8 6.3l-5.8-6.4c-1.6-3-.5-8.9 2.5-9zm-28.8.3c2.9.1 4.1 6.1 2.1 7.7l-10.1 9.1-2.9-6 9.6-10.4c.4-.3.9-.4 1.3-.4zm11.9 0c2.7-.1 4.7 6.8 3 7.4-1.8.7-7-5.2-3.9-7.2.3-.1.6-.1.9-.2zm8.1 10c.6 0 1.3.3 1.7.9l.5 15.4c-.7 1.4-3.1 2.6-4.5 2.9l-1.1-15.7c.4-2.2 2-3.6 3.4-3.5zm-11.6.5c2 0 3.9 2.7 2.5 6.6l-5.4 13c-1.7-.7-3.3-1.5-4.1-2.9l4.6-14.8c.6-1.3 1.5-1.9 2.4-1.9zm15.8 1.7l6.1 5.6c-1.1 2.8-3.3 4.7-5.7 6.4l-.4-12zm-21.2-1l-3.7 15c-2.2-1.9-4.4-3.8-6-7l9.7-8zm10.8 6.5l2.2 12c-2.4 1.5-5 1.1-7.7.5 0 .1 5.5-11.8 5.5-12.5z" fill="url(#SVGID_7_)"/><path d="M222.5 53.4l3.1 2.7c2.6-3.9 4.2-8.5 4.8-13.8l-3.3-2.8c-1.1 4.8-2.4 9.7-4.6 13.9z" fill="#e6e6e5"/></g><path d="M139.7 101.1c.5-1.5 1.4-2.6 1.3-4.7" fill="none" stroke-width=".125" stroke="#010101"/></svg>